<?xml version="1.0" encoding="utf-8"?>
<!-- Generator: Adobe Illustrator 25.2.3, SVG Export Plug-In . SVG Version: 6.00 Build 0)  -->
<svg version="1.1" id="Capa_1" xmlns="http://www.w3.org/2000/svg" xmlns:xlink="http://www.w3.org/1999/xlink" x="0px" y="0px"
	 viewBox="0 0 95.5 88.6" style="enable-background:new 0 0 95.5 88.6;" xml:space="preserve">
<style type="text/css">
	.st0{fill:#6495ED;}
	.st1{opacity:0.5;fill:#FFFFFF;}
	.st2{fill:#FFFFFF;}
</style>
<path class="st0" d="M15.3,0h64.9c8.4,0,15.3,6.8,15.3,15.3v58.1c0,8.4-6.8,15.3-15.3,15.3H15.3C6.8,88.6,0,81.8,0,73.3V15.3
	C0,6.8,6.8,0,15.3,0z"/>
<g>
	<path class="st1" d="M53,64.2L51.6,64c-0.3-1-0.6-2-1.1-2.9l0.8-1c0.7-0.8,0.6-2-0.1-2.7L51,57.1H39.9c-0.2,1.7-1.7,3-3.5,3h-3.5
		c-1.9,0-3.5-1.6-3.5-3.5v-0.8l-1.3,1.2c-0.8,0.7-0.8,1.9-0.2,2.7l0.9,1.1c-0.5,0.9-0.9,1.9-1.2,2.9L26.2,64c-1,0.1-1.8,1-1.8,2
		l0,2.1c0,1,0.8,1.9,1.8,2.1l1.5,0.2c0.3,0.9,0.6,1.8,1.1,2.7l-1,1.2c-0.7,0.8-0.6,2,0.1,2.7l1.5,1.5c0.7,0.8,1.9,0.8,2.7,0.2
		l1.2-0.9c0.9,0.5,1.8,0.9,2.7,1.2l0.2,1.6c0.1,1,1,1.8,2,1.8l2.1,0c1,0,1.9-0.8,2.1-1.8l0.2-1.5c1-0.3,2-0.6,3-1.2l1.2,0.9
		c0.8,0.7,2,0.6,2.7-0.1l1.5-1.5c0.8-0.7,0.8-1.9,0.2-2.7l-0.9-1.1c0.5-0.9,1-1.9,1.3-2.9l1.4-0.1c1-0.1,1.8-1,1.8-2l0-2.1
		C54.8,65.2,54,64.3,53,64.2z M39.5,72.5c-3,0-5.4-2.5-5.4-5.5c0-3,2.5-5.4,5.5-5.4c3,0,5.4,2.5,5.4,5.5
		C45,70.1,42.5,72.5,39.5,72.5z"/>
	<g>
		<g>
			<path class="st2" d="M67,39c-0.2-0.2-0.5-0.4-0.8-0.4h-3.8c-0.9-2.5-2.2-4.9-3.5-5.8c-4.8-3.2-17.5-3.2-22.4,0
				c-1.4,0.9-2.6,3.3-3.5,5.8h-3.8c-0.3,0-0.6,0.1-0.8,0.4c-0.2,0.2-0.3,0.5-0.2,0.8l0.6,2.7c0.1,0.5,0.5,0.8,1,0.8h1.1
				c-1.1,1.3-1.6,2.8-1.6,4.4c0,2,0.7,3.7,2.1,5c0,0,0,0,0,0v3.8c0,0.8,0.7,1.5,1.5,1.5h3.5c0.8,0,1.5-0.7,1.5-1.5v-1.5h19.6v1.5
				c0,0.8,0.7,1.5,1.5,1.5h3.5c0.8,0,1.5-0.7,1.5-1.5v-3.7c1.4-1.3,2.1-3.1,2.1-4.9c0-1.6-0.5-3.3-1.7-4.6h1.2c0.5,0,0.9-0.3,1-0.8
				l0.6-2.7C67.3,39.6,67.2,39.3,67,39z M38.2,35.4c3.8-2.5,15.2-2.5,19.1,0c0.7,0.5,1.7,2.5,2.6,4.9H35.6
				C36.5,37.8,37.5,35.9,38.2,35.4z M33.7,48.2c0-1.6,1.3-3,3-3c1.6,0,3,1.3,3,3s-1.3,3-3,3C35,51.1,33.7,49.8,33.7,48.2z
				 M58.8,51.1c-1.6,0-3-1.3-3-3s1.3-3,3-3c1.6,0,3,1.3,3,3S60.5,51.1,58.8,51.1z"/>
		</g>
	</g>
	<path class="st1" d="M85.9,45c-0.1-1-0.9-1.9-2-1.9l-2.1-0.1c-0.4-1.2-1-2.3-1.7-3.4l1.1-1.7c0.6-0.9,0.4-2-0.4-2.7l-2.6-2.2
		c-0.8-0.7-2-0.6-2.7,0.1l-1.4,1.3c-1.2-0.6-2.5-1-3.8-1.2l-0.4-2c-0.2-1-1.2-1.7-2.2-1.6l-3.4,0.3c-1,0.1-1.9,0.9-1.9,2l-0.1,1.9
		c0.5,0.8,1,1.8,1.5,2.9h2.4c0.9,0,1.8,0.4,2.3,1.1c0.6,0.7,0.8,1.6,0.6,2.5l-0.3,1.4c2.8,0.6,5,3,5.2,6c0.3,3.7-2.4,6.9-6.1,7.2
		c-0.7,0.1-1.4,0-2-0.1v1.9c0,1.9-1.6,3.5-3.5,3.5h-3.5c-1.8,0-3.2-1.3-3.5-3h-0.8l-1.1,1.7c-0.6,0.9-0.4,2,0.4,2.7l2.6,2.2
		c0.8,0.7,2,0.6,2.7-0.1l1.7-1.6c1.1,0.5,2.3,0.9,3.5,1.1l0.5,2.3c0.2,1,1.2,1.7,2.2,1.6l3.4-0.3c1-0.1,1.9-0.9,1.9-2l0.1-2.3
		c1.2-0.4,2.4-1,3.5-1.8L78,62c0.9,0.6,2,0.4,2.7-0.4l2.2-2.6c0.7-0.8,0.6-2-0.1-2.7l-1.5-1.6c0.6-1.2,1-2.4,1.2-3.7l2.1-0.4
		c1-0.2,1.7-1.2,1.6-2.2L85.9,45z"/>
	<path class="st1" d="M27.3,47.8c0-1.1,0.2-2.1,0.6-3.1c-0.5-0.4-0.9-1-1-1.7l-0.6-2.7c-0.2-0.9,0-1.8,0.6-2.5
		c0.6-0.7,1.4-1.1,2.3-1.1h0.7c-3.4-1-5.9-4.1-5.9-7.8c0-4.5,3.7-8.1,8.1-8.1s8.1,3.7,8.1,8.1c0,0.1,0,0.3,0,0.4
		c2.9-0.7,5.9-0.8,7.4-0.8c1.5,0,4.3,0.1,7.1,0.7v-2.7c0-1.1-0.8-1.9-1.8-2.1l-2.9-0.3c-0.4-1.5-1-3-1.7-4.3l1.8-2.3
		c0.7-0.8,0.6-2-0.2-2.8l-3.5-3.5c-0.8-0.8-1.9-0.8-2.8-0.2l-2.2,1.7c-1.4-0.8-2.9-1.5-4.5-1.9l-0.3-2.8c-0.1-1.1-1-1.8-2.1-1.8
		h-4.9c-1.1,0-1.9,0.8-2.1,1.8l-0.3,2.8c-1.6,0.4-3.2,1.1-4.6,2l-2.3-1.8c-0.8-0.7-2-0.6-2.8,0.2l-3.5,3.5c-0.8,0.8-0.8,1.9-0.2,2.8
		l1.9,2.4c-0.8,1.4-1.3,2.8-1.7,4.3l-3,0.3c-1.1,0.1-1.8,1-1.8,2.1v4.9c0,1.1,0.8,1.9,1.8,2.1l3.2,0.4c0.4,1.4,1,2.7,1.7,4l-2,2.5
		c-0.7,0.8-0.6,2,0.2,2.8l3.5,3.5c0.8,0.8,1.9,0.8,2.8,0.2l2.5-2c1.3,0.8,2.7,1.3,4.1,1.7"/>
</g>
</svg>
